<svg xmlns="http://www.w3.org/2000/svg" viewBox="0 0 1722 300" width="1722" height="300">
  <title>Watertown - badge + wordmark banner</title>
  <defs>
    <clipPath id="badge">
      <rect x="8" y="8" width="240" height="240" rx="48" ry="48"/>
    </clipPath>
    <linearGradient id="water" gradientUnits="userSpaceOnUse" x1="0" y1="118" x2="0" y2="248">
      <stop offset="0" stop-color="#1f6699"/>
      <stop offset="0.5" stop-color="#1f6699"/>
      <stop offset="1" stop-color="#0d4571"/>
    </linearGradient>
    <linearGradient id="sky" gradientUnits="userSpaceOnUse" x1="0" y1="8" x2="0" y2="82">
      <stop offset="0" stop-color="#aec4d6"/>
      <stop offset="1" stop-color="#dce8f1"/>
    </linearGradient>
    <linearGradient id="ocean" gradientUnits="userSpaceOnUse" x1="0" y1="82" x2="0" y2="112">
      <stop offset="0" stop-color="#bcccd9"/>
      <stop offset="1" stop-color="#7e9bb2"/>
    </linearGradient>
    <!-- letter fill: grey-blue gradient -->
    <linearGradient id="letterfill" gradientUnits="userSpaceOnUse" x1="0" y1="70" x2="0" y2="245">
      <stop offset="0" stop-color="#5f6a72"/>
      <stop offset="1" stop-color="#a2acb3"/>
    </linearGradient>
  </defs>


  <!-- badge on the left -->
  <g transform="translate(20 22)">
    <g clip-path="url(#badge)">
      <rect x="8" y="8" width="240" height="240" fill="url(#sky)"/>
      <rect x="8" y="82" width="240" height="30" fill="url(#ocean)"/>
      <rect x="8" y="82" width="240" height="1.6" fill="#eef4f9" opacity="0.6"/>
      <rect x="8" y="118" width="240" height="130" fill="url(#water)"/>

      <path d="M8 104 L248 104 L248 128
               C 226 132, 206 126, 188 130
               C 168 135, 150 124, 130 128
               C 112 132, 96 122, 80 127
               C 66 131, 48 124, 36 127
               C 26 129, 16 126, 8 128 Z"
            fill="#5a8f3c"/>
      <path transform="translate(0 6)" d="M8 104
               C 14 70, 26 66, 36 86
               C 44 70, 54 72, 60 90
               C 70 60, 80 62, 86 92
               C 98 78, 110 80, 118 96
               C 130 82, 142 84, 150 98
               C 162 86, 176 88, 184 100
               C 198 90, 214 92, 224 102
               C 232 96, 242 98, 248 104 Z"
            fill="#3c6c28"/>

      <path d="M8 150
               C 36 150, 66 158, 96 168
               C 120 176, 130 188, 120 200
               C 108 212, 78 214, 52 224
               C 36 230, 20 240, 8 248 Z"
            fill="#5a8f3c"/>
      <path d="M8 168
               C 30 168, 58 176, 86 186
               C 104 192, 110 200, 100 208
               C 86 216, 58 218, 36 228
               C 26 232, 16 240, 8 248 Z"
            fill="#6fa84a"/>

      <g transform="translate(176 157) scale(0.67) translate(-176 -157)">
        <g fill="#00325a" transform="translate(176 158) scale(1.0)">
          <path d="M16.5 -10 C14.5 -9 12.5 -7.7 9 -7.5 C4 -7.3 0 -7 -3 -6.2
                   C-4.6 -5.8 -5.3 -6.3 -6 -7.6 C-6.8 -9.1 -7 -10.8 -8.6 -11.6
                   C-10 -12.3 -11.8 -12 -12.7 -10.7 C-13.5 -9.6 -13.4 -8.4 -12.6 -7.6
                   C-14.3 -7.5 -16.4 -7.2 -16.2 -6.1 C-16 -5.1 -14 -5.4 -12.4 -5.7
                   C-11.2 -5.9 -10.6 -4.9 -10.1 -3.7 C-9.4 -1.9 -7.6 -0.2 -4.5 1
                   C0 2.6 6 2.6 10 1.2 C12.6 0.3 14.4 -0.8 15 -2.6
                   C15.7 -4.8 16.8 -7.8 16.5 -10 Z"/>
        </g>
        <path d="M152 157.6 Q176 156 200 157.6 L200 172 L152 172 Z" fill="#1f6699"/>
        <path d="M163 157.2 Q176 159 189 157.2" stroke="#6ba6d0"
              stroke-width="1.4" stroke-linecap="round" fill="none" opacity="0.85"/>
        <g stroke="#4a8cbd" stroke-linecap="round" fill="none">
          <path d="M150 161 q26 6 52 0" stroke-width="1.6" opacity="0.9"/>
          <path d="M144 165 q32 7 64 0" stroke-width="1.4" opacity="0.65"/>
        </g>
      </g>

      <g stroke="#4a8cbd" stroke-width="3.5" stroke-linecap="round" fill="none" opacity="0.9">
        <path d="M150 188 q24 -8 48 0 t48 0"/>
        <path d="M168 210 q22 -8 44 0 t44 0"/>
      </g>

      <g stroke="#3c6c28" stroke-width="2.5" stroke-linecap="round" fill="none">
        <path d="M22 248 q-4 -26 4 -46"/>
        <path d="M32 248 q2 -28 10 -48"/>
        <path d="M44 248 q-3 -24 6 -44"/>
        <path d="M56 248 q3 -22 12 -40"/>
      </g>
      <g stroke="#9bbf4a" stroke-width="2" stroke-linecap="round" fill="none">
        <path d="M27 248 q0 -24 8 -42"/>
        <path d="M40 248 q-2 -22 8 -40"/>
        <path d="M52 248 q2 -20 10 -36"/>
      </g>
    </g>
    <rect x="8" y="8" width="240" height="240" rx="48" ry="48"
          fill="none" stroke="#00325a" stroke-width="6"/>
  </g>

  <!-- wordmark: "watertown" all-lowercase Montserrat Bold, solid brand blue, matches Caspar Water -->
  <g>
    <path d="M348.14 233.44 298.26 95.1H336.06L368.71 188.7L402.66 95.1H436.6L469.51 188.96L503.2 95.1H538.69L488.54 233.44H449.97L418.86 147.3L386.71 233.44Z M632.31 233.44V216.47Q620.74 235.5 590.14 235.5Q565.71 235.5 552.09 223.54Q538.46 211.59 538.46 193.59Q538.46 175.33 552.34 163.76Q566.23 152.19 597.86 152.19H629.74Q629.74 139.33 621.9 132.13Q614.06 124.93 597.86 124.93Q586.8 124.93 576.13 128.4Q565.46 131.87 558 137.79L543.6 109.76Q554.91 101.79 570.86 97.41Q586.8 93.04 603.26 93.04Q634.89 93.04 652.37 108.09Q669.86 123.13 669.86 154.5V233.44ZM629.74 189.73V175.59H602.23Q588.09 175.59 582.81 180.21Q577.54 184.84 577.54 191.79Q577.54 199.5 583.59 204Q589.63 208.5 600.17 208.5Q610.2 208.5 618.17 203.74Q626.14 198.99 629.74 189.73Z M752.69 235.5Q728.26 235.5 714.63 223.03Q701 210.56 701 185.87V125.96H679.66V95.1H701V64.5H741.11V95.1H775.57V125.96H741.11V185.36Q741.11 194.1 745.61 198.86Q750.11 203.61 758.34 203.61Q767.86 203.61 774.54 198.47L785.34 226.76Q779.17 231.13 770.56 233.31Q761.94 235.5 752.69 235.5Z M866.63 235.5Q842.71 235.5 824.97 226.24Q807.23 216.99 797.46 200.91Q787.69 184.84 787.69 164.27Q787.69 143.44 797.33 127.37Q806.97 111.3 823.69 102.17Q840.4 93.04 861.49 93.04Q881.8 93.04 898.13 101.79Q914.46 110.53 923.97 126.6Q933.49 142.67 933.49 164.79Q933.49 167.1 933.23 170.06Q932.97 173.01 932.71 175.59H828.06Q831.14 188.44 841.56 195.9Q851.97 203.36 867.66 203.36Q878.71 203.36 887.07 200.01Q895.43 196.67 902.37 189.99L923.71 213.13Q904.17 235.5 866.63 235.5ZM827.8 152.19H895.69Q893.63 139.07 884.5 131.23Q875.37 123.39 861.74 123.39Q848.11 123.39 838.99 131.23Q829.86 139.07 827.8 152.19Z M950.23 233.44V95.1H988.54V113.36Q1003.2 93.04 1036.11 93.04V130.07Q1030.97 129.56 1027.11 129.56Q1010.4 129.56 1000.37 138.94Q990.34 148.33 990.34 168.13V233.44Z M1121.63 235.5Q1097.2 235.5 1083.57 223.03Q1069.94 210.56 1069.94 185.87V125.96H1048.6V95.1H1069.94V64.5H1110.06V95.1H1144.51V125.96H1110.06V185.36Q1110.06 194.1 1114.56 198.86Q1119.06 203.61 1127.29 203.61Q1136.8 203.61 1143.49 198.47L1154.29 226.76Q1148.11 231.13 1139.5 233.31Q1130.89 235.5 1121.63 235.5Z M1232.74 235.5Q1210.63 235.5 1193.53 226.37Q1176.43 217.24 1166.53 201.17Q1156.63 185.1 1156.63 164.27Q1156.63 143.44 1166.53 127.37Q1176.43 111.3 1193.53 102.17Q1210.63 93.04 1232.74 93.04Q1254.6 93.04 1271.83 102.17Q1289.06 111.3 1298.83 127.37Q1308.6 143.44 1308.6 164.27Q1308.6 185.1 1298.83 201.17Q1289.06 217.24 1271.83 226.37Q1254.6 235.5 1232.74 235.5ZM1232.74 202.59Q1247.66 202.59 1257.81 192.3Q1267.97 182.01 1267.97 164.27Q1267.97 146.27 1257.81 136.11Q1247.66 125.96 1232.74 125.96Q1217.57 125.96 1207.41 136.11Q1197.26 146.27 1197.26 164.27Q1197.26 182.01 1207.41 192.3Q1217.57 202.59 1232.74 202.59Z M1356.97 233.44 1307.09 95.1H1344.89L1377.54 188.7L1411.49 95.1H1445.43L1478.34 188.96L1512.03 95.1H1547.51L1497.37 233.44H1458.8L1427.69 147.3L1395.54 233.44Z M1556.29 233.44V95.1H1594.6V111.56Q1602.57 102.56 1614.4 97.8Q1626.23 93.04 1640.37 93.04Q1656.83 93.04 1669.81 99.6Q1682.8 106.16 1690.26 119.66Q1697.71 133.16 1697.71 154.24V233.44H1657.6V160.41Q1657.6 143.7 1650.14 135.73Q1642.69 127.76 1629.57 127.76Q1615.17 127.76 1605.79 136.89Q1596.4 146.01 1596.4 165.04V233.44Z" fill="#00325a"/>
  </g>
</svg>
